<?xml version="1.0" standalone="no"?>
<!DOCTYPE svg PUBLIC "-//W3C//DTD SVG 20010904//EN"
 "http://www.w3.org/TR/2001/REC-SVG-20010904/DTD/svg10.dtd">
<svg version="1.0" xmlns="http://www.w3.org/2000/svg"
 width="1024.000000pt" height="1024.000000pt" viewBox="0 0 1024.000000 1024.000000"
 preserveAspectRatio="xMidYMid meet">
<metadata>
Created by potrace 1.16, written by Peter Selinger 2001-2019
</metadata>
<g transform="translate(0.000000,1024.000000) scale(0.100000,-0.100000)"
fill="#000000" stroke="none">
<path d="M0 5120 l0 -5120 5120 0 5120 0 0 5120 0 5120 -5120 0 -5120 0 0
-5120z m1355 2665 c-20 -32 -39 -55 -42 -51 -3 3 11 31 31 62 21 31 40 54 43
51 2 -3 -12 -31 -32 -62z m143 -30 c-28 -43 -82 -137 -120 -209 -37 -72 -68
-123 -68 -113 0 42 228 437 237 410 2 -5 -20 -45 -49 -88z m180 28 c-136 -176
-226 -374 -280 -615 -18 -80 -23 -134 -23 -238 0 -132 1 -137 32 -203 18 -38
47 -87 64 -108 17 -21 26 -39 20 -39 -15 0 -69 75 -98 137 -39 83 -48 167 -35
299 31 289 147 578 320 792 52 64 52 41 0 -25z m219 -4 c-131 -144 -232 -332
-292 -538 -86 -301 -67 -465 73 -606 30 -30 49 -55 41 -55 -23 0 -108 100
-139 163 -53 109 -57 230 -15 414 46 203 131 389 244 538 57 75 132 157 139
151 2 -3 -21 -33 -51 -67z m216 -26 c-197 -194 -306 -397 -364 -677 -25 -123
-22 -202 14 -279 32 -71 85 -128 160 -174 32 -21 54 -39 47 -41 -18 -6 -115
65 -165 120 -59 66 -87 142 -87 238 0 182 84 431 209 619 56 84 250 291 273
291 7 0 -33 -44 -87 -97z m387 93 c0 -3 -38 -30 -85 -60 -168 -109 -325 -286
-400 -449 -69 -151 -89 -230 -89 -362 -1 -112 1 -124 26 -171 33 -64 115 -139
198 -183 36 -19 59 -36 52 -39 -22 -7 -145 74 -203 134 -76 80 -94 131 -93
259 0 124 25 217 98 370 91 191 221 336 406 456 70 46 90 56 90 45z m495 -6
c-3 -5 -19 -10 -35 -10 -39 0 -153 -25 -220 -48 -93 -32 -194 -88 -271 -150
-229 -182 -362 -421 -363 -652 -1 -73 3 -94 28 -148 49 -105 166 -194 295
-224 28 -6 51 -16 51 -21 0 -24 -149 31 -230 85 -65 43 -112 102 -143 182 -41
101 -15 293 60 439 105 208 320 408 524 487 124 48 321 87 304 60z m325 4 c0
-11 -173 -84 -326 -137 -206 -71 -239 -86 -343 -153 -294 -192 -439 -516 -330
-741 37 -77 139 -145 256 -173 64 -15 101 -42 120 -89 21 -49 27 -199 14 -306
-10 -87 -53 -270 -65 -283 -11 -10 -6 34 8 84 43 146 60 386 35 479 -16 57
-34 73 -113 97 -142 42 -226 101 -274 192 -25 46 -27 61 -27 161 0 94 4 121
27 183 40 110 84 177 178 273 139 140 234 196 486 283 88 30 200 72 249 94 94
42 105 46 105 36z m190 2 c0 -2 -62 -37 -137 -77 -187 -98 -554 -311 -630
-366 -199 -141 -286 -273 -287 -438 0 -118 32 -168 169 -262 85 -58 119 -117
136 -238 13 -86 1 -281 -25 -400 -19 -88 -87 -339 -93 -345 -12 -11 8 92 42
215 77 277 86 534 24 662 -16 33 -41 57 -109 103 -133 91 -166 155 -157 296
13 219 142 347 637 630 284 162 430 237 430 220z m702 -22 c167 -60 413 -206
531 -314 137 -125 143 -260 15 -324 -115 -57 -338 -24 -703 104 -140 49 -217
64 -335 64 -105 0 -122 -2 -197 -31 -107 -41 -178 -89 -257 -174 -71 -77 -136
-198 -156 -289 -7 -30 -16 -181 -21 -335 -6 -215 -14 -322 -34 -460 -37 -257
-43 -434 -17 -555 49 -234 118 -349 352 -580 164 -162 169 -167 218 -270 70
-146 87 -228 87 -420 -1 -376 -118 -596 -435 -814 -237 -164 -276 -193 -356
-271 -113 -111 -184 -227 -248 -409 -3 -10 -9 -16 -12 -13 -9 9 25 103 66 187
49 99 114 183 204 267 71 66 112 97 345 258 196 137 293 251 362 429 79 203
80 510 3 714 -44 117 -91 180 -255 342 -226 224 -299 345 -351 585 -19 91 -15
316 10 485 36 246 43 330 47 566 5 298 22 377 113 512 99 145 264 256 428 288
133 26 227 10 536 -91 225 -74 330 -95 466 -95 108 0 167 20 198 68 23 34 22
97 -1 147 -53 113 -331 307 -575 400 -83 32 -128 55 -108 55 4 0 40 -12 80
-26z m229 -37 c412 -208 573 -353 574 -517 1 -186 -231 -249 -587 -159 -42 10
-161 50 -265 88 -104 38 -223 76 -265 85 -146 30 -278 17 -398 -41 -83 -40
-196 -158 -248 -260 -65 -126 -81 -204 -92 -448 -5 -115 -22 -302 -37 -415
-35 -270 -37 -462 -6 -570 30 -105 93 -258 134 -325 19 -32 94 -120 167 -197
135 -144 203 -239 247 -345 65 -160 91 -350 75 -539 -29 -340 -162 -586 -399
-741 -244 -159 -312 -208 -379 -268 -132 -122 -207 -251 -263 -455 -18 -66
-37 -120 -42 -120 -4 0 -6 8 -3 18 2 9 17 62 31 117 74 277 191 420 525 640
223 148 272 190 349 305 224 335 226 872 3 1196 -22 33 -92 114 -156 182 -64
67 -134 150 -156 183 -47 73 -123 251 -152 356 -26 97 -28 289 -4 463 26 185
44 374 51 540 7 170 24 274 60 363 98 244 306 396 543 397 97 0 199 -25 412
-102 305 -110 485 -147 632 -128 134 16 198 68 206 167 4 45 0 63 -27 118 -60
121 -221 240 -533 393 -122 60 -157 82 -129 82 5 0 64 -28 132 -63z m162 -18
c268 -134 398 -234 477 -364 48 -80 54 -168 17 -241 -32 -62 -58 -86 -132
-121 -58 -27 -66 -28 -210 -28 -183 1 -250 16 -592 133 -269 92 -360 110 -474
93 -132 -21 -229 -81 -306 -188 -100 -140 -133 -278 -134 -565 0 -112 -4 -225
-9 -253 -5 -33 -6 0 -5 95 2 80 1 125 -1 100 -3 -25 -16 -130 -30 -235 -32
-233 -41 -427 -25 -519 29 -163 110 -306 276 -486 216 -233 293 -386 345 -693
58 -342 -10 -727 -171 -965 -86 -126 -100 -138 -424 -347 -237 -153 -353 -310
-412 -554 -9 -39 -21 -71 -26 -71 -11 0 -2 41 30 145 46 147 111 252 219 356
75 71 120 103 322 228 73 45 154 104 181 131 134 134 237 365 271 610 30 213
3 502 -67 713 -53 160 -121 266 -287 446 -108 116 -165 196 -210 292 -89 187
-93 295 -31 759 9 63 20 198 25 300 11 199 22 265 68 377 39 96 81 160 146
221 101 95 197 127 361 119 120 -6 132 -9 460 -121 230 -78 365 -108 500 -109
170 -2 268 38 322 130 63 107 24 232 -111 361 -92 87 -163 133 -368 238 -149
75 -181 94 -163 94 3 0 78 -36 168 -81z m62 36 c193 -99 298 -168 386 -255
102 -101 141 -171 147 -266 8 -125 -54 -226 -176 -286 l-67 -33 -175 0 c-206
1 -262 12 -605 124 -251 82 -317 95 -436 89 -74 -5 -101 -11 -154 -37 -79 -39
-143 -109 -190 -206 -63 -132 -67 -172 -66 -625 2 -558 15 -655 110 -843 38
-77 203 -317 217 -317 2 0 -43 95 -102 211 -58 116 -103 213 -100 216 2 3 14
-12 26 -34 12 -21 18 -29 15 -18 -4 11 -18 58 -33 105 l-26 85 -2 465 c-1 347
2 485 12 544 25 151 107 270 222 324 46 22 75 28 152 30 109 4 147 -4 447 -91
258 -76 364 -97 518 -104 149 -6 213 5 332 61 97 46 155 102 199 192 62 125
56 245 -17 359 -49 76 -194 213 -294 279 -50 33 -92 61 -94 63 -2 2 -2 5 1 8
3 3 52 -25 109 -63 180 -121 348 -323 386 -465 28 -105 -3 -200 -100 -304 -73
-77 -148 -121 -287 -165 -98 -31 -114 -33 -235 -32 -154 1 -256 20 -503 96
-297 91 -300 91 -407 92 -115 0 -165 -17 -235 -80 -56 -50 -86 -106 -110 -199
-18 -71 -20 -111 -20 -427 0 -192 5 -392 11 -446 14 -134 53 -241 179 -502 60
-124 127 -279 149 -345 58 -175 114 -445 93 -445 -5 0 -15 37 -22 83 -16 115
-72 328 -114 436 -20 51 -82 190 -140 309 -110 230 -139 307 -155 412 -5 36
-12 236 -15 445 -5 308 -3 393 9 448 52 247 229 370 464 323 45 -9 164 -42
264 -72 264 -81 372 -104 517 -111 114 -5 134 -3 225 21 147 39 250 92 319
167 91 98 118 172 101 276 l-8 48 -9 -63 c-26 -189 -140 -320 -340 -388 -77
-27 -94 -29 -223 -28 -172 1 -251 17 -610 119 -143 41 -287 78 -320 81 -164
17 -310 -60 -378 -199 -53 -108 -56 -143 -58 -647 l-2 -465 26 -96 c13 -52 39
-128 56 -168 17 -40 31 -79 31 -86 0 -7 29 -70 63 -141 69 -139 175 -394 201
-484 44 -149 82 -473 71 -610 -23 -303 -97 -567 -207 -736 -72 -111 -151 -180
-325 -285 -87 -52 -187 -117 -223 -146 -114 -89 -190 -208 -232 -363 -12 -44
-25 -80 -29 -80 -22 0 41 191 92 276 71 120 146 181 462 375 213 130 338 339
407 676 47 235 50 415 10 678 -40 263 -122 460 -274 664 -121 162 -158 223
-196 328 -49 136 -62 239 -64 491 -1 220 -1 222 -15 152 -20 -103 -26 -78 -7
31 11 62 16 154 16 281 0 223 14 306 69 423 96 204 253 287 482 256 61 -8 165
-36 306 -82 339 -111 523 -147 680 -135 187 14 311 105 332 243 29 197 -131
377 -496 558 -108 53 -141 75 -115 75 5 0 48 -20 97 -45z m83 18 c301 -172
437 -285 504 -421 100 -201 -37 -420 -301 -482 -133 -31 -420 14 -766 121
-224 70 -277 81 -380 83 -130 1 -182 -19 -266 -103 -64 -65 -88 -105 -125
-206 -15 -43 -19 -100 -25 -415 -9 -459 -7 -426 -18 -414 -6 5 -6 71 -1 169 5
88 6 246 3 350 -4 156 -2 203 11 260 38 159 132 291 243 343 46 21 77 27 147
30 112 5 165 -5 406 -78 288 -88 450 -122 601 -128 140 -5 199 4 283 44 78 37
140 95 173 162 23 47 28 70 28 132 0 63 -5 85 -30 135 -57 114 -227 256 -463
385 -45 25 -82 48 -82 53 0 12 9 9 58 -20z m192 -52 c116 -74 254 -180 245
-189 -3 -3 -22 9 -43 26 -20 18 -98 72 -172 121 -74 50 -144 97 -155 106 -44
36 17 4 125 -64z m167 17 c49 -33 133 -107 189 -162 131 -132 176 -215 182
-339 3 -64 -1 -95 -17 -139 -58 -166 -197 -282 -407 -340 -67 -18 -107 -21
-264 -22 -215 -1 -246 4 -565 96 -318 92 -417 91 -535 -2 -49 -39 -97 -135
-112 -221 -16 -90 5 -768 26 -860 18 -78 32 -116 140 -364 110 -251 202 -537
194 -603 -2 -17 -16 25 -37 108 -46 182 -83 288 -192 535 -136 312 -139 326
-150 755 -6 222 -6 378 0 415 22 143 86 241 189 292 51 25 67 28 157 27 92 -1
118 -6 315 -63 339 -99 487 -121 668 -101 214 23 334 72 443 180 76 75 115
148 131 241 13 80 -6 165 -55 249 -43 75 -203 232 -309 305 -76 52 -101 75
-83 75 3 0 44 -28 92 -62z m119 -23 c135 -111 215 -202 266 -303 43 -84 43
-85 43 -191 0 -104 -1 -109 -38 -184 -114 -231 -349 -349 -693 -349 -160 0
-277 17 -469 68 -316 84 -360 94 -411 94 -111 0 -212 -61 -258 -156 -45 -93
-51 -160 -38 -462 15 -354 29 -426 132 -682 105 -264 186 -519 177 -559 -2 -9
-9 4 -16 29 -42 160 -102 337 -170 508 -114 287 -126 346 -141 715 -11 268 -5
356 30 435 45 101 107 152 216 179 60 15 71 15 156 -2 51 -10 153 -35 228 -56
252 -73 372 -92 570 -92 147 0 188 4 255 22 304 81 493 308 455 549 -22 135
-103 254 -271 397 -56 47 -110 92 -120 98 -19 12 -27 31 -10 25 6 -1 53 -39
107 -83z m64 20 c292 -244 372 -473 250 -720 -49 -101 -110 -170 -205 -234
-142 -95 -312 -141 -518 -141 -149 0 -272 20 -558 90 -345 85 -413 81 -509
-27 -64 -73 -75 -125 -74 -338 3 -310 29 -458 129 -730 82 -221 137 -398 133
-426 -2 -12 -20 35 -41 106 -21 70 -67 205 -102 300 -95 254 -116 358 -135
661 -19 303 24 433 165 506 77 40 154 36 382 -21 330 -83 382 -93 558 -98 122
-4 183 -1 254 11 259 45 457 194 532 401 32 85 31 227 0 308 -36 92 -115 200
-203 279 -146 131 -153 137 -144 138 4 0 43 -29 86 -65z m147 -68 c91 -94 118
-130 152 -199 55 -110 69 -190 53 -301 -22 -153 -118 -303 -256 -402 -175
-125 -366 -173 -641 -162 -153 6 -270 26 -512 88 -247 63 -334 63 -409 -3 -78
-68 -100 -162 -90 -382 9 -212 39 -358 130 -634 43 -128 76 -242 74 -255 -3
-17 -7 -11 -17 23 -6 25 -41 131 -76 235 -78 234 -112 383 -126 557 -19 230 1
359 67 436 89 105 167 110 474 34 256 -63 382 -82 547 -82 216 0 368 35 503
114 209 123 320 298 320 507 0 159 -70 290 -240 452 -55 52 -100 98 -100 101
0 17 45 -22 147 -127z m39 51 c161 -169 224 -302 224 -473 0 -207 -107 -393
-304 -527 -128 -88 -264 -131 -472 -150 -203 -18 -362 1 -734 87 -238 56 -336
29 -391 -105 -10 -26 -14 -76 -12 -190 2 -191 29 -335 107 -578 30 -92 52
-171 48 -177 -14 -23 -140 408 -162 556 -15 101 -16 323 -1 375 14 54 62 119
103 141 58 32 205 24 378 -19 253 -63 324 -72 545 -72 245 0 334 17 494 95 90
44 116 63 196 142 106 105 155 191 181 317 42 197 -28 379 -216 565 -44 44
-80 83 -80 88 0 13 50 -26 96 -75z m175 -126 c83 -127 115 -238 106 -372 -11
-167 -71 -293 -202 -426 -124 -126 -275 -205 -462 -243 -92 -19 -183 -28 -172
-17 2 3 47 12 99 20 258 42 442 140 577 306 99 122 143 245 143 397 0 168 -52
283 -207 459 -35 40 -63 76 -63 80 1 18 135 -133 181 -204z m16 83 c215 -285
196 -621 -49 -880 -45 -48 -110 -107 -144 -131 -77 -55 -227 -126 -257 -122
-15 2 3 12 53 31 219 80 428 288 501 497 19 53 23 87 24 180 0 192 -54 326
-199 486 -25 29 -46 56 -46 60 0 14 70 -58 117 -121z m313 117 c0 -10 -71 -45
-77 -38 -5 5 56 46 70 46 4 0 7 -4 7 -8z m130 0 c0 -5 -19 -17 -42 -28 -22
-10 -59 -31 -81 -47 -21 -16 -41 -27 -43 -24 -7 7 41 46 96 76 58 32 70 36 70
23z m155 0 c-6 -5 -31 -17 -58 -26 -60 -22 -158 -88 -192 -128 -14 -17 -29
-28 -32 -24 -18 18 134 133 222 169 44 17 75 22 60 9z m235 1 c0 -5 -38 -15
-85 -24 -155 -31 -269 -99 -347 -210 -44 -62 -60 -72 -33 -19 25 48 134 151
193 183 28 16 94 39 144 52 99 26 128 30 128 18z m-2435 -38 c174 -51 351
-149 479 -266 121 -111 129 -201 22 -250 -84 -38 -237 -21 -466 52 -237 76
-413 97 -544 63 -244 -62 -504 -284 -573 -489 -14 -42 -17 -98 -18 -365 -1
-312 -1 -317 -39 -565 -34 -225 -37 -264 -33 -385 5 -142 19 -204 72 -330 58
-139 136 -255 432 -643 155 -204 198 -355 158 -548 -47 -222 -175 -390 -477
-622 -207 -159 -318 -267 -396 -385 -20 -30 -38 -49 -40 -43 -6 19 87 142 169
223 43 42 149 132 236 199 258 202 356 306 433 458 66 132 88 307 55 436 -19
74 -78 178 -162 287 -276 361 -336 448 -409 603 -74 155 -89 225 -88 410 0
125 6 193 26 315 44 257 51 354 45 605 -8 266 0 323 59 438 28 54 63 97 138
172 116 115 217 180 353 228 79 29 99 32 203 31 126 0 201 -15 460 -93 173
-53 276 -67 352 -52 98 21 133 67 103 138 -20 48 -42 72 -133 144 -95 77 -189
131 -309 179 -197 78 -362 91 -513 40 -160 -53 -446 -204 -678 -357 -240 -158
-352 -290 -368 -435 -9 -77 11 -135 86 -248 32 -50 68 -116 80 -148 35 -91 46
-222 32 -365 -11 -108 -27 -188 -100 -507 -13 -57 -17 -119 -16 -255 1 -250
13 -294 199 -685 57 -118 118 -258 138 -310 105 -283 62 -517 -142 -772 -62
-78 -239 -253 -247 -245 -3 3 50 60 118 128 221 222 308 394 308 608 0 159
-33 257 -223 656 -106 224 -139 317 -163 455 -22 130 -14 316 21 465 81 342
89 392 89 565 1 202 -15 267 -98 387 -95 139 -114 197 -96 292 24 129 95 221
279 359 149 112 291 197 527 315 277 138 309 148 464 142 74 -3 132 -12 195
-30z m2895 28 c-300 -21 -418 -40 -542 -87 -249 -94 -358 -272 -358 -583 1
-215 65 -397 185 -519 34 -35 57 -64 50 -64 -26 0 -134 130 -170 204 -61 127
-78 210 -79 381 0 128 3 162 23 232 56 200 180 316 411 387 121 37 245 54 395
53 72 0 110 -2 85 -4z m360 -53 c69 -11 134 -29 127 -36 -2 -2 -37 2 -78 10
-215 40 -594 21 -800 -40 -95 -28 -145 -60 -199 -126 -142 -176 -215 -469
-165 -658 32 -120 133 -277 206 -322 38 -23 37 -33 0 -14 -33 17 -112 103
-149 161 -46 73 -84 193 -89 286 -16 264 152 600 336 670 67 25 205 55 316 67
113 13 417 14 495 2z m84 -64 c148 -29 366 -105 463 -161 65 -39 46 -42 -28
-4 -98 49 -223 95 -359 130 -120 32 -133 33 -315 34 -414 1 -644 -78 -769
-263 -63 -93 -97 -202 -103 -327 -7 -121 6 -185 53 -280 51 -102 124 -189 191
-227 31 -18 51 -34 45 -36 -39 -13 -158 96 -221 201 -71 120 -85 170 -86 302
0 98 5 134 24 195 65 212 182 328 400 399 56 18 205 43 331 55 81 7 293 -3
374 -18z m-3364 -6 c141 -34 299 -131 334 -205 21 -44 14 -70 -27 -92 -54 -29
-134 -21 -347 33 -176 44 -206 49 -305 49 -124 -1 -215 -22 -372 -86 -116 -47
-212 -110 -300 -198 -80 -80 -126 -154 -148 -236 -21 -81 -19 -122 11 -309 44
-266 39 -434 -22 -756 -41 -214 -49 -317 -35 -422 26 -197 84 -316 375 -773
77 -119 149 -271 178 -370 34 -120 33 -292 -4 -393 -56 -154 -120 -232 -382
-465 -189 -168 -228 -205 -304 -290 -29 -32 -52 -53 -52 -45 1 24 153 177 355
356 110 97 221 204 248 237 135 167 177 359 126 577 -25 108 -109 279 -225
458 -200 311 -275 456 -316 610 -24 94 -26 269 -4 390 72 385 69 367 70 565 0
156 -4 212 -23 315 -44 241 -27 355 72 485 139 181 400 324 671 366 95 15 158
7 376 -46 225 -55 291 -63 343 -42 29 13 37 21 37 41 0 16 -15 42 -37 68 -108
120 -351 204 -515 178 -104 -16 -177 -43 -343 -130 -82 -43 -170 -84 -195 -90
-156 -40 -425 -263 -494 -409 -27 -57 -31 -77 -31 -146 0 -67 7 -100 42 -205
92 -274 93 -412 7 -840 -81 -400 -72 -519 60 -795 29 -60 92 -179 140 -263
227 -399 266 -498 266 -692 0 -147 -37 -258 -126 -376 -50 -66 -504 -529 -504
-514 0 7 105 118 234 248 254 259 316 338 357 463 20 61 24 93 23 184 -2 180
-48 301 -250 656 -178 313 -245 470 -265 615 -15 113 -7 193 42 439 92 460 91
615 -3 880 -36 102 -42 132 -42 200 -1 72 3 88 33 150 44 90 188 237 318 323
88 59 118 74 208 102 22 6 92 40 155 75 139 76 173 91 270 121 97 30 206 31
320 4z m-505 1 c-13 -11 -125 -61 -125 -56 0 3 26 18 58 34 57 30 85 39 67 22z
m3785 -31 c362 -44 772 -261 1016 -536 79 -90 174 -213 174 -227 0 -6 -2 -8
-4 -6 -2 2 -39 49 -83 104 -280 350 -640 568 -1053 641 -76 13 -131 15 -275
10 -99 -3 -193 -8 -210 -11 -23 -5 -26 -4 -14 4 38 24 315 37 449 21z m647
-20 c11 -21 10 -27 -2 -36 -8 -6 -15 -16 -15 -23 0 -6 -4 -11 -9 -11 -12 0
-20 49 -10 56 5 3 9 0 9 -7 0 -10 3 -10 12 -1 9 9 9 15 0 24 -9 9 -16 5 -33
-16 -28 -35 -35 -28 -12 13 21 36 42 37 60 1z m-567 -36 c249 -43 555 -193
772 -378 192 -164 398 -458 498 -710 31 -80 35 -120 4 -50 -222 507 -482 796
-895 993 -230 109 -384 145 -624 145 -370 0 -619 -95 -713 -272 -89 -167 -78
-367 30 -534 55 -85 152 -179 218 -211 32 -15 47 -26 35 -27 -66 0 -225 148
-290 272 -51 97 -68 160 -68 258 0 184 78 327 224 413 183 107 522 150 809
101z m598 -17 c-16 -51 -2 -59 33 -17 33 39 40 27 8 -14 -22 -28 -48 -33 -66
-15 -9 9 -7 22 8 51 25 48 33 46 17 -5z m92 -67 l1 -25 11 23 c6 12 15 22 20
22 5 0 3 -10 -3 -22 -12 -23 -15 -19 51 -68 14 -10 22 -21 18 -25 -3 -4 -25
10 -47 30 -36 33 -43 36 -58 24 -15 -13 -16 -10 -10 31 l6 45 -20 -24 c-28
-34 -32 -22 -7 18 19 30 23 32 29 15 4 -10 8 -30 9 -44z m-642 24 c174 -35
370 -122 557 -246 346 -228 635 -680 711 -1108 71 -403 -33 -864 -261 -1160
-152 -196 -303 -339 -496 -466 -172 -114 -198 -163 -144 -270 14 -27 65 -93
115 -148 49 -54 90 -101 90 -104 0 -12 -142 134 -185 190 -25 34 -48 77 -55
107 -10 44 -9 55 8 93 24 53 28 57 177 156 229 151 450 379 562 580 138 246
202 525 190 819 -10 240 -54 413 -163 633 -187 379 -417 612 -776 790 -251
124 -471 162 -753 130 -348 -40 -545 -202 -545 -450 0 -208 144 -401 393 -526
48 -24 87 -48 87 -53 0 -12 -183 83 -242 126 -122 89 -228 252 -250 386 -14
85 -1 163 40 251 93 196 370 304 745 290 64 -2 152 -11 195 -20z m0 -59 c246
-47 483 -166 689 -344 157 -136 280 -304 393 -536 128 -264 163 -409 164 -685
1 -207 -14 -310 -65 -465 -112 -338 -345 -627 -698 -865 -159 -107 -181 -134
-181 -223 1 -87 30 -136 170 -292 98 -109 145 -188 182 -305 20 -64 23 -96 23
-215 -1 -122 -4 -147 -23 -197 -49 -121 -160 -232 -280 -279 -46 -19 -77 -23
-162 -23 -226 0 -372 86 -598 349 -113 132 -227 300 -305 450 -72 139 -140
225 -204 256 -47 24 -52 24 -308 21 -154 -1 -271 -7 -286 -13 -47 -19 -64 -77
-63 -209 1 -99 6 -134 37 -250 32 -120 38 -154 22 -139 -2 3 -21 68 -41 145
-31 116 -37 157 -38 249 -1 99 2 115 24 160 36 71 47 74 350 74 247 1 257 0
306 -23 70 -33 129 -105 216 -264 100 -186 184 -309 308 -453 172 -199 291
-285 450 -325 102 -26 228 -16 313 24 229 107 325 358 246 644 -36 128 -81
203 -208 343 -127 140 -167 231 -142 323 17 60 58 102 175 179 134 88 232 170
355 299 158 166 253 313 324 504 67 180 82 277 81 515 0 176 -4 226 -21 305
-77 343 -298 721 -539 922 -272 226 -586 348 -894 348 -314 -1 -523 -86 -600
-245 -35 -71 -40 -216 -11 -297 45 -130 138 -230 326 -353 167 -109 288 -231
343 -346 98 -203 95 -463 -8 -674 -71 -147 -177 -236 -348 -289 -91 -28 -233
-43 -272 -28 -18 7 2 10 85 15 125 6 217 31 310 82 119 67 195 163 246 315 27
81 33 114 37 221 6 155 -11 243 -70 362 -54 108 -160 214 -323 322 -266 176
-375 335 -363 534 13 221 177 351 494 391 93 12 281 4 382 -15z m4 -50 c360
-63 680 -294 941 -682 176 -260 253 -491 264 -793 15 -422 -121 -762 -432
-1075 -106 -108 -171 -160 -362 -293 -102 -70 -139 -116 -152 -185 -18 -99 15
-183 125 -318 99 -121 157 -218 190 -314 31 -95 42 -215 25 -297 -28 -132
-120 -252 -240 -311 -56 -27 -77 -32 -162 -35 -116 -5 -197 15 -298 75 -166
99 -383 354 -536 633 -104 190 -190 291 -279 330 -71 32 -177 43 -351 37 -216
-8 -263 -24 -305 -106 -55 -109 -49 -236 30 -550 62 -252 64 -261 51 -261 -6
0 -11 7 -11 15 0 9 -25 116 -56 238 -46 184 -57 242 -61 338 -7 148 9 210 70
273 58 61 103 69 365 64 l207 -3 67 -32 c101 -48 190 -148 268 -302 127 -253
377 -557 540 -656 256 -155 536 -85 653 163 27 57 32 81 35 162 7 179 -47 319
-193 500 -115 143 -147 205 -153 294 -3 63 -1 77 25 126 30 58 71 93 283 240
113 78 282 244 372 364 129 173 223 394 254 598 8 57 15 165 15 240 0 376
-124 687 -411 1030 -216 260 -492 427 -790 479 -160 28 -398 10 -532 -41 -168
-63 -252 -234 -200 -407 40 -132 124 -234 302 -368 145 -109 246 -214 293
-302 99 -188 112 -432 36 -668 -56 -175 -150 -280 -334 -370 -121 -60 -207
-80 -289 -70 -57 7 -279 55 -285 61 -15 14 20 11 115 -11 167 -40 251 -43 349
-11 176 57 322 172 388 306 63 127 80 212 81 390 0 172 -11 233 -66 350 -38
80 -169 214 -333 340 -60 47 -131 112 -158 145 -60 74 -113 181 -127 258 -32
172 72 325 264 387 123 40 358 51 508 25z m807 1 c22 -26 -24 -81 -56 -69 -19
7 -15 41 7 63 24 24 34 25 49 6z m-758 -61 c272 -57 593 -268 772 -509 282
-377 393 -772 332 -1182 -60 -400 -309 -752 -731 -1032 -163 -108 -215 -180
-215 -295 0 -102 34 -175 150 -327 123 -161 186 -348 163 -485 -49 -295 -334
-421 -616 -272 -76 41 -196 154 -303 286 -79 99 -121 164 -248 388 -66 115
-169 221 -254 262 -90 42 -175 54 -374 49 -161 -3 -176 -5 -228 -29 -85 -40
-131 -113 -148 -234 -12 -85 1 -200 48 -405 22 -96 49 -228 61 -293 19 -108
36 -174 55 -219 4 -11 3 -18 -3 -18 -16 0 -40 83 -72 251 -16 85 -46 224 -66
309 -34 139 -38 169 -38 290 -1 135 -1 135 34 205 39 78 92 126 163 147 28 9
108 13 237 13 173 0 203 -2 265 -22 39 -12 90 -35 115 -51 68 -43 151 -134
202 -220 25 -42 77 -131 116 -197 112 -190 291 -399 412 -478 116 -77 273
-103 385 -64 156 53 255 213 242 392 -10 137 -59 247 -186 420 -102 138 -125
194 -125 300 -1 134 40 189 241 323 565 378 810 920 687 1522 -44 213 -161
456 -322 668 -156 204 -418 389 -657 465 -169 53 -365 60 -527 18 -180 -47
-258 -127 -266 -276 -8 -147 68 -270 294 -476 213 -194 271 -280 316 -468 28
-120 21 -314 -16 -451 -56 -202 -136 -309 -326 -435 -188 -125 -260 -140 -450
-90 -52 14 -160 41 -240 61 -169 42 -210 57 -130 48 30 -4 134 -28 230 -54
348 -96 369 -93 596 58 171 115 256 231 304 417 59 231 47 418 -40 600 -47 97
-100 160 -251 297 -184 168 -245 248 -289 378 -39 116 -9 247 73 316 126 106
392 148 628 99z m805 -1 c-9 -8 -21 -25 -27 -36 -16 -31 -23 -13 -8 21 8 18
21 31 32 31 17 0 17 -1 3 -16z m-768 -59 c155 -37 310 -117 468 -241 176 -137
349 -371 467 -631 122 -271 139 -665 41 -962 -31 -96 -113 -257 -172 -341 -97
-137 -272 -298 -495 -453 -190 -132 -242 -207 -241 -342 1 -104 18 -147 131
-321 116 -179 145 -250 151 -369 3 -75 0 -100 -18 -147 -26 -71 -96 -150 -164
-186 -45 -24 -62 -27 -146 -27 -85 1 -102 4 -160 32 -79 37 -115 64 -204 151
-129 127 -222 253 -326 444 -121 223 -265 342 -462 382 -116 24 -377 22 -457
-3 -136 -42 -193 -130 -208 -317 -7 -95 5 -187 53 -407 19 -86 43 -224 54
-305 24 -180 40 -235 86 -302 20 -29 30 -50 22 -48 -20 6 -77 106 -93 163 -8
28 -22 106 -31 175 -8 69 -35 221 -60 338 -53 256 -61 348 -40 454 28 142 83
215 196 261 51 20 71 22 250 22 221 -1 276 -11 395 -73 75 -40 175 -127 229
-201 19 -25 62 -98 96 -161 80 -149 179 -280 304 -406 82 -81 116 -108 180
-140 71 -35 89 -39 168 -43 79 -3 94 0 142 23 66 32 120 90 153 163 23 50 25
64 21 156 -5 127 -31 193 -141 357 -110 166 -131 216 -135 322 -4 77 -1 94 22
143 33 73 104 141 251 244 293 205 452 375 568 606 85 171 116 308 124 540 10
323 -56 546 -249 845 -187 291 -452 498 -743 582 -66 19 -104 23 -215 23 -82
0 -157 -5 -190 -14 -205 -51 -286 -174 -234 -352 34 -116 81 -185 234 -343 80
-83 161 -173 179 -199 140 -204 169 -506 76 -791 -46 -141 -72 -185 -164 -276
-84 -83 -250 -209 -334 -253 -25 -13 -65 -23 -102 -25 -62 -3 -98 5 -300 68
-126 39 -364 95 -478 111 -48 7 -87 17 -87 21 0 11 15 10 116 -7 151 -26 373
-82 504 -125 94 -32 146 -43 210 -47 102 -6 117 1 293 126 212 152 284 249
344 467 24 90 27 115 27 274 1 164 -1 180 -26 255 -46 134 -101 215 -264 386
-202 211 -257 309 -258 454 0 149 99 242 299 280 94 17 248 13 343 -10z m27
-65 c200 -48 360 -145 532 -323 78 -80 136 -157 119 -157 -3 0 33 -51 80 -112
186 -246 253 -480 241 -838 -7 -208 -31 -310 -110 -467 -119 -236 -269 -395
-581 -615 -247 -174 -302 -253 -293 -413 5 -94 30 -172 89 -270 124 -209 148
-274 148 -395 0 -106 -32 -168 -114 -225 -57 -40 -59 -40 -150 -40 -84 0 -97
3 -160 34 -135 66 -255 207 -449 524 -82 134 -139 201 -230 271 -135 103 -266
148 -490 167 -399 34 -522 -84 -504 -483 3 -80 16 -174 35 -268 43 -205 50
-246 62 -415 6 -82 16 -170 22 -195 18 -74 58 -138 110 -177 27 -19 46 -38 43
-41 -10 -11 -90 56 -122 101 -41 61 -59 144 -73 336 -7 105 -24 219 -52 355
-38 182 -42 215 -42 346 1 345 84 448 372 458 234 8 428 -32 577 -120 107 -64
227 -191 304 -323 203 -346 357 -509 520 -551 102 -26 178 -8 249 60 56 52 76
101 76 186 0 99 -29 193 -94 300 -120 198 -156 297 -148 410 10 139 68 211
315 387 177 125 359 290 439 396 185 246 257 502 234 827 -26 367 -113 551
-394 839 -188 193 -312 276 -496 336 -70 23 -104 28 -190 29 -89 1 -112 -3
-155 -22 -103 -47 -149 -118 -150 -227 0 -90 25 -141 143 -293 181 -230 256
-410 269 -643 7 -130 -14 -270 -63 -418 -40 -119 -74 -184 -142 -267 -58 -72
-320 -296 -377 -324 -63 -31 -132 -26 -250 16 -281 100 -364 125 -525 158
-240 49 -386 66 -553 66 -362 0 -610 -85 -732 -250 -167 -228 -150 -653 46
-1107 141 -329 160 -409 184 -768 16 -248 35 -353 84 -481 17 -43 28 -80 26
-83 -8 -7 -62 121 -79 185 -27 106 -36 176 -51 404 -8 124 -21 262 -30 308
-19 101 -67 241 -139 405 -75 173 -100 246 -129 377 -53 236 -58 406 -17 565
78 303 309 441 775 461 163 7 338 -10 580 -57 190 -36 280 -62 471 -134 184
-70 212 -72 290 -21 97 65 297 231 372 310 79 84 108 133 145 252 47 148 60
244 54 404 -4 123 -9 157 -31 225 -47 139 -86 198 -289 437 -87 103 -121 162
-143 249 -29 112 -1 231 63 277 83 58 166 80 298 81 67 1 127 -6 180 -19z m18
-131 c151 -29 336 -137 480 -280 49 -49 86 -80 83 -71 -12 35 89 -86 152 -182
110 -169 160 -304 187 -513 74 -561 -120 -933 -685 -1318 -63 -44 -134 -94
-158 -113 -187 -151 -203 -409 -42 -682 99 -167 111 -305 34 -390 -46 -51 -90
-70 -161 -70 -94 0 -166 41 -290 166 -57 56 -103 107 -103 113 0 5 48 -38 108
-97 111 -112 178 -155 259 -168 117 -18 223 77 223 202 0 53 -28 129 -99 268
-96 187 -121 314 -87 441 34 130 93 197 295 334 253 173 367 276 497 447 59
78 137 237 170 349 22 76 27 116 31 252 8 249 -24 441 -102 611 -36 76 -95
176 -101 169 -2 -1 18 -46 45 -99 54 -108 92 -222 118 -353 25 -130 25 -411
-1 -520 -35 -150 -106 -305 -194 -419 -60 -79 -179 -196 -223 -219 -29 -16
-26 -12 16 24 183 158 318 363 375 574 34 123 39 379 12 540 -47 270 -135 448
-339 682 -159 182 -458 333 -638 321 -119 -7 -214 -82 -222 -175 -7 -70 24
-146 116 -287 261 -400 311 -705 180 -1101 -52 -156 -102 -228 -304 -432 -275
-277 -290 -281 -604 -141 -420 187 -1052 256 -1361 150 -260 -90 -375 -244
-387 -518 -7 -148 12 -273 68 -455 37 -121 50 -155 153 -391 84 -192 103 -299
126 -693 12 -214 33 -311 95 -442 24 -51 40 -93 35 -93 -15 0 -87 159 -109
240 -25 91 -38 208 -46 400 -11 260 -41 413 -116 582 -127 288 -187 469 -216
653 -29 189 1 389 75 505 163 254 548 336 1132 239 226 -37 377 -81 555 -161
152 -69 210 -88 268 -88 83 0 125 28 307 209 213 211 271 295 323 471 115 380
57 701 -190 1062 -140 204 -155 326 -52 412 81 69 166 84 312 55z m181 -132
c131 -63 207 -117 298 -210 125 -127 225 -291 286 -472 55 -160 67 -241 67
-440 0 -165 -2 -188 -28 -280 -76 -278 -271 -529 -552 -714 -55 -37 -140 -89
-189 -116 -203 -113 -280 -230 -340 -514 -30 -141 -46 -185 -74 -200 -59 -32
-136 4 -282 129 -170 147 -347 260 -496 316 -75 28 -130 38 -366 64 -155 18
-197 19 -250 10 -125 -23 -212 -85 -251 -179 -20 -51 -22 -72 -21 -226 1 -172
15 -304 56 -520 17 -90 22 -167 28 -420 7 -363 12 -385 103 -479 51 -51 137
-96 187 -96 11 0 20 -5 20 -11 0 -15 -52 -3 -122 28 -101 45 -175 148 -199
279 -7 38 -9 119 -4 229 7 192 -1 297 -45 557 -90 536 -55 735 143 824 90 40
192 42 442 10 110 -14 227 -34 260 -46 150 -52 320 -156 508 -313 163 -136
220 -167 273 -147 31 12 39 34 74 195 66 305 127 390 385 544 190 113 254 160
364 266 198 190 316 400 351 627 18 112 8 380 -19 484 -97 388 -317 673 -627
816 -54 25 -87 32 -152 36 -101 6 -160 -13 -198 -64 -54 -71 -43 -149 52 -350
193 -412 221 -562 163 -870 -35 -187 -99 -337 -200 -475 -34 -46 -130 -152
-213 -235 -181 -180 -227 -209 -330 -202 -56 3 -87 15 -252 95 -212 103 -240
113 -409 147 -244 49 -351 60 -560 61 -175 0 -211 -3 -289 -23 -241 -61 -385
-203 -417 -412 -28 -183 39 -479 181 -800 96 -215 128 -345 141 -565 18 -322
28 -440 45 -505 20 -77 74 -200 110 -247 14 -18 20 -33 14 -33 -16 0 -86 114
-111 179 -43 114 -69 310 -69 521 0 248 -47 437 -178 721 -41 88 -116 333
-137 444 -24 126 -17 317 14 397 62 160 209 270 425 321 225 52 756 4 1034
-95 48 -16 153 -64 234 -104 223 -112 272 -115 393 -29 78 55 277 261 356 367
147 199 223 439 224 708 0 192 -33 304 -183 625 -107 230 -114 308 -32 386 48
46 94 59 192 55 68 -2 88 -8 172 -49z m-1765 -109 c25 -97 68 -189 119 -257
46 -61 47 -86 1 -31 -63 76 -149 277 -149 348 0 39 8 22 29 -60z m1767 40
c212 -85 412 -304 514 -562 77 -192 111 -414 91 -591 -44 -387 -268 -695 -673
-924 -255 -144 -316 -198 -430 -376 -57 -89 -124 -152 -173 -161 -65 -12 -139
14 -369 131 -261 132 -325 157 -461 179 -55 9 -147 26 -205 38 -123 25 -290
29 -367 10 -103 -27 -179 -99 -209 -198 -9 -30 -14 -92 -14 -168 0 -106 6
-151 51 -366 27 -135 57 -279 65 -320 19 -97 29 -278 16 -310 -7 -18 -11 13
-15 120 -4 91 -14 181 -27 240 -97 434 -104 479 -105 635 0 141 2 153 26 205
37 80 72 115 147 152 62 31 74 33 189 37 99 2 146 -2 255 -22 73 -14 166 -31
207 -38 114 -18 185 -46 453 -179 251 -125 305 -143 372 -126 43 11 95 65 165
171 102 155 167 213 369 329 183 104 281 173 375 265 315 304 414 672 301
1111 -55 210 -145 371 -289 515 -142 142 -273 214 -390 215 -115 0 -170 -56
-162 -165 5 -60 21 -111 117 -370 75 -200 93 -299 87 -455 -11 -256 -84 -494
-211 -685 -62 -92 -371 -416 -442 -464 -97 -64 -187 -50 -391 61 -202 110
-262 131 -508 177 -513 96 -804 60 -966 -117 -112 -122 -155 -283 -129 -483
16 -125 48 -233 122 -409 147 -355 163 -425 178 -780 10 -239 27 -365 60 -453
24 -64 88 -168 133 -214 22 -23 26 -33 15 -33 -19 0 -92 99 -136 184 -18 35
-41 98 -52 140 -21 82 -40 298 -40 456 0 191 -42 375 -140 610 -133 323 -161
428 -162 605 0 174 51 303 159 406 60 57 88 74 171 106 190 71 395 71 792 -2
250 -46 326 -74 531 -191 146 -84 250 -104 332 -63 47 24 359 336 435 437 90
117 161 284 205 480 18 80 22 127 21 272 0 198 -7 228 -103 478 -104 270 -116
330 -79 402 47 91 158 113 294 58z m26 -99 c86 -29 155 -77 240 -168 157 -168
260 -410 290 -680 21 -188 -11 -370 -95 -536 -123 -246 -305 -421 -608 -584
-124 -66 -231 -141 -265 -186 -15 -20 -29 -33 -32 -31 -2 3 13 26 34 51 44 54
105 97 254 180 309 172 489 344 603 577 61 123 87 225 94 365 10 191 -32 398
-117 580 -112 240 -308 419 -469 431 -50 4 -61 1 -89 -23 -68 -57 -66 -116 18
-378 64 -202 85 -328 77 -471 -14 -256 -98 -543 -212 -722 -21 -32 -81 -104
-134 -159 -54 -55 -130 -143 -171 -195 -140 -180 -189 -219 -280 -220 -64 0
-107 14 -181 60 -352 220 -418 245 -759 296 -73 11 -177 18 -285 18 -157 0
-176 -1 -247 -26 -227 -76 -347 -248 -348 -494 0 -155 24 -250 169 -656 64
-179 101 -408 101 -625 0 -282 63 -485 193 -620 65 -68 65 -88 -1 -24 -89 87
-156 221 -186 376 -8 44 -20 179 -25 300 -15 321 -39 436 -154 750 -117 318
-142 511 -87 687 51 165 206 298 395 339 141 31 510 2 745 -57 114 -29 273
-106 423 -204 156 -101 211 -120 289 -100 63 17 97 48 204 183 54 67 138 165
188 217 51 52 107 117 125 143 88 129 175 373 205 579 34 226 16 384 -73 660
-75 231 -69 327 23 369 53 24 73 24 148 -2z m-1784 -205 c17 -27 29 -51 26
-54 -16 -15 -112 166 -120 227 -4 30 2 20 29 -44 18 -45 48 -103 65 -129z
m-85 -42 c10 -12 9 -14 -3 -11 -18 6 -80 124 -80 153 1 12 16 -12 35 -53 20
-41 41 -81 48 -89z m1928 119 c242 -93 444 -507 425 -876 -12 -243 -99 -427
-300 -630 -137 -138 -241 -213 -423 -301 -174 -85 -247 -140 -297 -221 -79
-131 -169 -187 -301 -188 -103 0 -169 24 -295 111 -322 220 -377 244 -643 279
-419 54 -617 -40 -660 -315 -21 -140 19 -414 99 -660 90 -280 110 -424 100
-715 -8 -225 2 -313 45 -405 55 -118 146 -189 278 -215 l66 -13 -47 -1 c-93
-2 -200 57 -269 149 -48 64 -75 136 -89 238 -6 45 -19 101 -30 124 -14 33 -21
85 -29 218 -6 96 -13 198 -16 225 -4 49 -4 49 4 9 5 -23 14 -113 20 -200 12
-165 26 -254 42 -254 5 0 8 102 6 238 -4 272 -11 317 -88 566 -81 262 -110
415 -112 601 -1 91 3 122 22 179 64 188 240 280 506 262 324 -22 510 -82 706
-229 178 -134 272 -177 380 -177 124 0 200 46 294 180 31 44 75 95 98 114 23
18 114 70 202 114 187 93 283 161 417 295 222 222 307 427 295 712 -9 208 -77
423 -179 567 -123 171 -286 261 -353 194 -40 -40 -41 -95 -6 -241 65 -268 76
-426 42 -621 -42 -239 -91 -392 -197 -616 -36 -76 -66 -150 -67 -165 -2 -27 0
-28 41 -26 43 2 115 32 222 93 50 29 52 29 25 6 -16 -14 -67 -45 -113 -68 -65
-33 -94 -42 -135 -43 -49 0 -52 1 -55 27 -2 17 21 79 63 170 87 187 116 266
158 434 73 290 76 481 13 748 -53 224 -46 306 29 337 31 12 51 10 106 -10z
m-3576 -55 c88 -19 211 -42 274 -50 121 -17 150 -26 85 -26 -50 0 -229 30
-414 70 -218 47 -293 38 -352 -41 -64 -85 -39 -387 56 -679 22 -69 25 -93 10
-77 -10 10 -72 220 -88 299 -24 115 -36 275 -26 350 13 109 58 168 145 191 40
11 153 -2 310 -37z m1513 -13 c5 -16 13 -36 17 -45 4 -10 3 -18 -3 -18 -6 0
-15 12 -20 28 -5 15 -13 35 -17 45 -4 9 -3 17 3 17 6 0 15 -12 20 -27z m-2761
-222 c-4 -134 -13 -253 -27 -341 -71 -454 -63 -581 49 -816 78 -162 158 -272
311 -424 146 -145 186 -196 230 -293 48 -106 63 -201 57 -351 -6 -150 -21
-217 -77 -334 -72 -152 -172 -258 -391 -416 -188 -136 -228 -166 -291 -225
-79 -73 -149 -162 -199 -256 -24 -43 -45 -73 -47 -67 -2 7 11 38 28 70 94 167
204 278 454 457 278 198 386 316 454 492 42 108 56 189 55 323 -1 133 -23 231
-75 337 -26 54 -64 100 -189 228 -199 205 -285 326 -359 506 -80 192 -89 347
-39 679 26 168 32 247 36 439 4 167 8 229 16 216 6 -12 8 -92 4 -224z m1194
198 c63 -11 118 -24 124 -30 12 -12 14 -13 -147 17 -199 37 -254 27 -288 -50
-41 -91 -36 -233 15 -433 27 -110 17 -125 -13 -20 -32 111 -42 181 -42 301 1
230 62 267 351 215z m-56 -29 c4 -6 -25 -10 -79 -10 -101 0 -112 -3 -134 -44
-14 -25 -17 -57 -16 -176 1 -80 -2 -132 -6 -115 -4 17 -8 81 -9 143 -1 134 12
175 61 197 38 16 174 20 183 5z m-1508 -69 c13 -29 14 -63 9 -185 -4 -82 -11
-156 -16 -165 -6 -10 -7 49 -3 159 5 170 5 176 -16 203 -13 15 -29 27 -37 27
-8 0 -14 4 -14 9 0 6 12 6 31 -1 21 -7 36 -22 46 -47z m5184 10 c-28 -28 -35
-77 -27 -194 19 -311 19 -388 -3 -519 -12 -71 -43 -203 -68 -295 -25 -93 -47
-200 -50 -239 -5 -70 -5 -72 22 -90 23 -15 31 -16 63 -5 56 20 156 88 215 145
145 143 217 329 217 559 -1 192 -52 366 -150 505 -50 71 -82 100 -148 133 -27
13 -32 18 -16 19 33 0 109 -55 155 -112 54 -68 123 -211 151 -313 29 -108 32
-347 5 -445 -24 -89 -85 -213 -142 -288 -79 -105 -246 -222 -316 -222 -15 0
-37 9 -50 19 -39 31 -32 120 24 326 78 284 82 308 82 520 0 105 -4 240 -9 301
-6 81 -5 121 3 147 13 38 35 67 52 67 5 0 0 -9 -10 -19z m-6305 -19 c6 -4 10
-24 10 -44 l0 -37 -20 22 -21 22 -3 -23 c-6 -40 -22 -23 -22 23 0 40 2 45 23
45 12 0 27 -4 33 -8z m62 -70 c11 2 18 15 20 36 4 35 22 45 22 11 0 -34 -19
-59 -45 -59 -23 0 -25 3 -23 48 l1 47 4 -43 c3 -34 8 -43 21 -40z m102 45 c0
12 5 25 10 28 6 4 10 -12 10 -39 0 -52 -12 -58 -37 -19 l-18 27 -6 -29 c-5
-24 -7 -20 -7 20 l-1 50 24 -30 c23 -28 25 -28 25 -8z m206 -3 c12 -46 -35
-73 -56 -33 -9 16 -8 26 4 44 19 29 43 23 52 -11z m42 -16 c-1 -37 -2 -39 -5
-10 -2 17 -10 32 -16 32 -7 0 -6 4 3 10 8 5 16 10 18 10 1 0 1 -19 0 -42z
m-118 -8 c0 -5 -20 -10 -44 -10 -25 0 -48 5 -51 10 -4 6 13 10 44 10 28 0 51
-4 51 -10z m6203 -190 c74 -64 145 -297 132 -430 -13 -138 -54 -247 -131 -349
-44 -59 -123 -121 -153 -121 -8 0 5 13 30 28 152 98 250 309 236 511 -11 149
-69 309 -131 356 -42 32 -62 32 -79 -2 -19 -38 -25 -73 -37 -244 -6 -81 -26
-233 -45 -339 -42 -234 -45 -287 -12 -300 12 -5 17 -9 10 -9 -6 -1 -18 2 -27
5 -25 10 -20 122 14 317 16 95 36 249 44 342 14 160 26 224 49 253 17 22 64
14 100 -18z m-4760 -647 c36 -131 97 -234 225 -383 224 -259 316 -478 353
-840 44 -433 -111 -922 -347 -1092 -27 -19 -109 -70 -182 -114 -288 -171 -400
-301 -472 -552 -24 -84 -45 -114 -29 -42 42 184 138 349 266 455 37 31 138 98
224 150 189 115 223 141 292 227 94 119 162 281 207 495 30 141 37 383 16 533
-46 328 -127 517 -323 751 -106 127 -158 199 -196 276 -62 122 -88 297 -71
488 l9 100 6 -195 c4 -135 11 -214 22 -257z m4775 354 c43 -46 47 -179 6 -259
-20 -40 -44 -68 -57 -68 -6 0 0 11 12 24 28 29 61 133 61 190 0 42 -27 107
-49 114 -33 11 -88 -248 -63 -303 6 -14 8 -25 3 -25 -50 0 -18 263 41 338 14
17 21 15 46 -11z m-3958 -307 c8 -5 13 -10 10 -11 -34 -6 -43 -9 -48 -15 -4
-4 1 -4 11 -1 11 4 17 1 17 -8 0 -19 -6 -19 -41 2 -36 22 -37 31 -1 36 15 2
29 5 32 5 3 1 12 -3 20 -8z m6 -148 c-4 -3 -16 4 -29 16 -28 27 -37 28 -37 4
0 -11 14 -25 36 -35 19 -10 33 -21 30 -26 -8 -12 -55 -20 -62 -10 -3 5 5 9 18
9 22 0 21 2 -9 26 -35 27 -41 45 -20 63 10 8 19 7 33 -4 28 -21 34 -18 36 18
1 25 2 23 5 -12 3 -23 2 -46 -1 -49z m1328 -170 c-4 -4 -9 -1 -11 6 -3 6 -13
12 -24 12 -24 0 -24 13 -2 31 15 12 16 12 10 -4 -4 -11 -3 -16 4 -12 6 4 8 14
5 22 -3 8 -3 20 1 26 4 7 11 -7 16 -31 5 -24 5 -47 1 -50z m62 76 c5 -7 9 -26
9 -43 0 -25 -4 -30 -25 -30 -21 0 -25 5 -26 30 -2 29 11 55 26 55 4 0 12 -6
16 -12z m100 0 c5 -7 9 -26 9 -43 0 -25 -4 -30 -25 -30 -21 0 -25 5 -26 30 -2
29 11 55 26 55 4 0 12 -6 16 -12z m69 2 c3 -5 -3 -10 -14 -10 -12 0 -21 -4
-21 -10 0 -5 9 -10 21 -10 30 0 22 -44 -8 -48 -13 -2 -23 1 -23 6 0 6 9 8 20
5 12 -3 20 0 20 7 0 6 -9 14 -20 17 -22 6 -27 38 -7 46 19 8 25 8 32 -3z m65
0 c12 -8 11 -10 -7 -10 -29 0 -30 -16 -2 -23 30 -8 21 -42 -11 -42 -29 0 -38
31 -20 64 12 23 18 25 40 11z m120 -16 c0 -16 -16 -19 -25 -4 -8 13 4 32 16
25 5 -4 9 -13 9 -21z m60 -26 c0 -6 -6 -6 -14 1 -12 10 -15 7 -19 -16 -2 -16
-4 -7 -5 22 l-1 50 19 -24 c11 -13 20 -28 20 -33z m-110 31 c0 -5 -4 -7 -10
-4 -5 3 -16 3 -22 -1 -9 -6 -5 -10 12 -14 35 -8 35 -45 0 -45 -19 0 -26 6 -28
23 -2 13 -1 30 2 38 6 16 46 19 46 3z m140 -30 c0 -28 -4 -39 -12 -36 -7 2
-13 9 -12 15 1 7 2 23 3 37 2 42 21 28 21 -16z m-815 -108 c-6 -5 -28 -14 -50
-21 -177 -56 -298 -176 -361 -355 -28 -81 -44 -112 -44 -84 0 27 38 127 72
192 40 75 135 172 206 210 83 45 206 85 177 58z m240 -1 c-3 -5 -17 -10 -29
-10 -48 0 -223 -51 -292 -85 -135 -66 -221 -168 -271 -319 -35 -109 -43 -326
-19 -495 28 -187 87 -402 164 -592 116 -289 134 -367 152 -664 15 -247 42
-404 91 -513 12 -29 14 -42 6 -40 -15 5 -60 138 -81 241 -9 42 -23 174 -31
292 -9 118 -22 254 -31 303 -16 95 -65 244 -137 417 -56 135 -89 245 -129 440
-28 134 -32 169 -32 325 -1 138 3 189 17 240 54 197 164 329 330 397 118 48
308 89 292 63z m-1592 -198 c126 -299 174 -565 164 -897 -5 -146 -11 -207 -36
-326 -81 -391 -206 -604 -419 -719 -318 -172 -439 -292 -503 -500 -23 -75 -39
-107 -39 -79 0 28 41 142 77 213 40 80 133 179 228 243 33 22 119 73 190 113
157 89 228 156 297 280 117 212 192 545 191 850 -1 314 -58 575 -198 903 -9
22 -12 36 -6 33 5 -3 29 -54 54 -114z m-201 -117 c108 -145 177 -313 208 -510
16 -101 13 -344 -5 -450 -49 -283 -191 -519 -387 -645 -336 -217 -364 -238
-456 -344 -67 -77 -144 -232 -176 -355 -28 -102 -43 -132 -32 -61 21 135 110
325 207 441 55 65 188 168 337 261 230 142 295 207 387 392 145 289 163 686
46 1005 -53 144 -173 321 -276 405 -25 21 -50 47 -56 59 -24 43 145 -121 203
-198z m-882 53 c16 -46 60 -157 100 -248 164 -376 194 -514 154 -708 -20 -99
-69 -201 -144 -299 -75 -99 -149 -181 -150 -167 0 6 23 37 52 70 184 210 246
360 235 568 -7 140 -32 226 -146 491 -96 223 -141 343 -141 374 0 27 12 3 40
-81z m3375 -43 c213 -31 321 -75 542 -221 204 -134 238 -149 338 -149 69 0 86
4 127 27 25 15 76 60 111 100 36 40 68 70 71 67 12 -12 -138 -161 -185 -185
-123 -62 -207 -42 -422 98 -262 170 -388 221 -626 252 -266 35 -470 15 -589
-57 -118 -70 -197 -210 -209 -368 -11 -140 11 -228 161 -663 42 -121 76 -229
75 -240 0 -13 -6 -5 -14 19 -11 31 -13 33 -9 10 7 -46 24 -276 23 -315 -1 -19
-10 42 -20 135 -25 229 -50 338 -120 531 -108 300 -134 445 -105 584 44 206
174 339 377 385 78 18 322 13 474 -10z m-3146 -92 c17 -35 29 -63 26 -63 -5 0
-65 116 -65 126 0 12 6 2 39 -63z m4926 -32 c-6 -4 -64 -45 -131 -89 -132 -89
-215 -169 -244 -235 -34 -76 -50 -159 -50 -253 0 -111 23 -206 79 -326 62
-134 65 -187 15 -247 -51 -61 -148 -47 -277 39 -95 63 -173 147 -266 285 -149
221 -349 371 -572 428 -86 23 -424 43 -491 29 -133 -26 -209 -92 -249 -214
-38 -119 -29 -301 33 -633 23 -129 31 -204 38 -385 7 -185 12 -237 29 -292 26
-82 87 -153 160 -188 59 -27 70 -48 14 -25 -111 46 -175 130 -203 262 -6 27
-14 149 -20 273 -7 170 -16 255 -35 350 -53 261 -69 510 -41 615 40 152 144
240 306 259 88 10 413 -19 495 -44 221 -70 410 -217 555 -435 111 -167 222
-269 347 -321 79 -32 127 -32 159 3 50 54 45 111 -21 253 -109 234 -97 487 32
657 31 41 110 102 232 180 85 55 133 79 106 54z m464 -57 c-50 -53 -165 -142
-302 -234 -78 -53 -147 -106 -153 -119 -15 -29 -4 -69 36 -135 36 -57 33 -72
-4 -24 -53 70 -70 144 -41 184 8 12 47 41 87 65 104 61 220 146 313 227 78 68
113 88 64 36z m-5259 -166 c37 -79 71 -154 74 -168 3 -14 -2 -7 -11 15 -10 22
-45 97 -80 168 -34 70 -60 127 -57 127 3 0 36 -64 74 -142z m-337 7 c75 -183
98 -267 104 -386 7 -127 -11 -222 -61 -325 -38 -77 -99 -167 -109 -158 -3 3
10 27 29 54 45 62 99 181 113 248 6 29 11 97 11 150 0 118 -28 229 -100 405
-28 67 -50 126 -50 131 0 22 19 -14 63 -119z m-133 -35 c0 -5 -5 -12 -10 -15
-6 -4 -8 -11 -5 -16 9 -13 -2 -11 -35 6 -40 21 -38 30 10 32 22 2 40 -2 40 -7z
m-38 -100 c17 -26 28 -25 29 3 1 21 1 21 8 -3 5 -14 6 -28 4 -32 -5 -10 -36 3
-50 21 -6 9 -15 13 -18 9 -14 -13 5 -40 35 -51 17 -6 30 -15 30 -19 0 -10 -51
-31 -58 -23 -3 2 6 9 19 13 l24 9 -32 16 c-35 19 -48 44 -32 63 16 19 27 17
41 -6z m2152 -112 c19 -209 67 -410 164 -674 107 -292 123 -366 142 -659 14
-202 43 -368 87 -481 3 -8 1 -14 -4 -14 -10 0 -54 137 -72 225 -5 28 -15 111
-21 185 -32 402 -36 425 -144 728 -41 116 -86 252 -100 304 -44 163 -88 458
-68 458 5 0 12 -33 16 -72z m-1515 -152 c1 -70 -5 -53 -12 29 -3 41 -2 60 3
45 4 -14 8 -47 9 -74z m-9 -216 c-12 -59 -87 -218 -121 -260 -11 -14 -7 -1 11
30 68 121 109 231 111 304 2 35 3 36 6 11 3 -16 0 -55 -7 -85z m2968 90 c48
-6 118 -6 199 1 236 19 283 -10 407 -252 142 -275 367 -565 540 -696 73 -55
198 -117 281 -138 71 -19 215 -21 276 -5 171 46 301 192 345 387 21 93 15 239
-15 358 -14 58 -16 75 -6 61 28 -38 50 -167 49 -286 -1 -95 -6 -129 -27 -195
-39 -119 -105 -208 -204 -276 -172 -119 -437 -100 -660 48 -185 121 -455 457
-598 744 -64 128 -117 197 -169 219 -36 15 -73 17 -304 16 -230 -2 -264 -4
-279 -19 -31 -31 -30 -195 4 -334 3 -13 1 -23 -4 -23 -13 0 -43 162 -43 230 0
69 15 125 41 151 22 22 55 23 167 9z m-1433 -137 c15 -65 54 -197 86 -294 96
-290 116 -388 139 -674 12 -152 34 -289 60 -380 10 -36 15 -65 10 -65 -5 0
-14 17 -19 38 -44 169 -54 233 -71 442 -19 245 -37 329 -131 618 -78 239 -125
432 -105 432 2 0 16 -53 31 -117z m2007 -146 c147 -286 383 -579 585 -729 78
-57 199 -115 289 -138 90 -23 225 -26 299 -6 255 68 406 296 393 593 -3 73 -2
101 6 93 17 -17 12 -225 -7 -300 -50 -192 -175 -330 -355 -392 -54 -18 -88
-23 -172 -22 -206 0 -374 73 -566 246 -196 175 -333 363 -536 735 -21 37 -45
79 -54 93 -9 14 0 8 19 -13 20 -22 64 -94 99 -160z m1540 159 c9 -22 7 -28
-18 -50 -16 -14 -32 -26 -36 -26 -12 0 -10 14 3 27 17 17 1 35 -24 27 -26 -8
-18 2 20 27 37 23 42 23 55 -5z m-4297 -53 c-4 -27 -19 -102 -35 -168 -92
-387 -199 -561 -426 -694 -268 -156 -370 -245 -428 -373 -19 -40 -37 -88 -41
-105 -3 -18 -11 -33 -16 -33 -12 0 -2 38 28 112 62 153 145 232 393 378 198
116 268 185 344 342 30 62 70 165 89 228 35 115 77 301 77 339 0 12 5 21 11
21 7 0 8 -17 4 -47z m4302 -24 c-15 -11 -27 -27 -27 -35 0 -17 8 -17 40 1 14
8 32 14 40 15 8 0 -5 -12 -30 -26 -42 -24 -45 -24 -57 -8 -19 27 -16 37 20 60
40 27 50 22 14 -7z m63 -78 c-14 -27 -13 -36 5 -21 8 6 20 10 27 8 7 -3 -6
-15 -29 -26 -54 -28 -59 -28 -39 3 24 37 20 50 -9 31 -14 -9 -25 -12 -25 -7 0
14 31 30 58 31 19 0 21 -3 12 -19z m36 -109 c15 -26 28 -48 30 -50 1 -2 11 1
22 7 15 8 23 7 31 -3 16 -19 5 -41 -26 -55 -22 -10 -29 -9 -42 3 -11 12 -12
19 -4 27 9 9 3 24 -23 63 -19 28 -34 54 -34 59 0 17 19 -4 46 -51z m-3618
-132 c83 -267 101 -358 122 -620 12 -143 31 -271 54 -357 8 -29 10 -53 5 -53
-25 0 -64 232 -84 500 -12 152 -43 302 -99 477 -59 188 -74 244 -59 228 6 -5
33 -84 61 -175z m-783 138 c-14 -71 -68 -243 -100 -320 -51 -121 -111 -215
-180 -282 -62 -61 -91 -81 -260 -179 -131 -76 -250 -196 -301 -304 -42 -90
-65 -112 -36 -35 55 144 179 266 396 391 162 93 246 177 320 321 50 96 104
247 132 363 9 42 22 77 27 77 5 0 6 -15 2 -32z m-946 -29 c-44 -62 -359 -361
-359 -340 0 5 42 47 93 93 50 45 135 126 187 179 52 54 96 98 98 98 2 1 -6
-13 -19 -30z m5471 -87 c0 -8 -53 -42 -67 -42 -10 0 49 49 60 50 4 0 7 -4 7
-8z m-4561 -167 c-91 -260 -201 -396 -418 -520 -167 -96 -286 -212 -336 -330
-10 -22 -19 -35 -22 -28 -7 19 56 130 104 183 53 59 148 130 266 200 110 64
216 163 278 258 45 68 111 221 140 322 9 31 14 39 16 25 2 -12 -10 -61 -28
-110z m795 -50 c41 -145 55 -223 77 -448 11 -116 29 -250 39 -297 17 -79 18
-101 4 -88 -13 14 -44 209 -59 373 -18 196 -41 334 -80 465 -27 94 -30 109
-16 95 5 -6 21 -50 35 -100z m3656 -5 c-22 -159 -84 -284 -188 -380 -74 -68
-182 -125 -278 -145 -223 -47 -476 37 -712 237 -84 72 -232 224 -232 240 0 18
17 5 55 -43 50 -63 221 -219 297 -270 146 -99 284 -148 438 -156 124 -6 198
10 300 63 178 93 286 262 306 478 4 47 10 74 16 68 6 -6 5 -41 -2 -92z m-4422
-27 c-16 -63 -105 -241 -152 -307 -58 -82 -106 -123 -240 -210 -61 -40 -137
-96 -168 -125 -50 -46 -109 -121 -121 -154 -2 -7 -8 -9 -12 -5 -12 12 40 89
99 148 31 30 123 100 204 155 111 77 159 116 199 165 54 67 138 225 168 318
19 59 39 72 23 15z m4497 -45 c-40 -237 -225 -444 -460 -514 -83 -25 -265 -25
-358 0 -138 37 -254 95 -382 193 -102 77 -181 150 -173 159 5 4 34 -17 65 -48
134 -127 290 -224 443 -274 76 -25 100 -28 225 -28 122 -1 149 2 205 22 141
50 271 156 339 275 34 60 81 193 81 231 0 14 5 26 11 26 7 0 8 -14 4 -42z
m-4511 -149 c-70 -168 -144 -257 -324 -390 -63 -47 -143 -116 -177 -152 -63
-67 -87 -86 -59 -44 34 48 126 133 231 211 155 117 222 193 291 333 60 122 82
146 38 42z m4574 34 c-15 -57 -82 -181 -132 -244 -110 -140 -289 -236 -471
-254 -141 -14 -342 34 -495 117 -80 43 -250 166 -250 180 0 12 12 4 85 -53
181 -141 366 -215 560 -226 130 -7 222 13 342 72 153 76 279 220 334 383 22
67 44 86 27 25z m-3810 -70 c7 -43 19 -156 28 -252 8 -96 22 -206 30 -244 17
-81 16 -77 5 -77 -14 0 -36 138 -55 350 -9 91 -20 189 -26 219 -12 65 -13 81
-2 81 5 0 14 -35 20 -77z m3867 -30 c-31 -76 -98 -176 -161 -243 -217 -230
-533 -288 -864 -158 -82 32 -201 94 -268 140 -71 49 -39 44 40 -5 323 -202
624 -239 888 -110 80 39 108 59 180 132 68 69 95 106 135 183 49 96 80 134 50
61z m-4646 -121 c-55 -97 -117 -170 -213 -250 -50 -42 -114 -98 -142 -124 -54
-51 -84 -66 -43 -22 13 14 79 73 145 130 129 110 189 180 245 288 19 36 35 59
37 51 2 -8 -11 -41 -29 -73z m4671 -22 c-90 -153 -196 -254 -345 -325 -119
-57 -202 -76 -328 -76 -116 0 -220 19 -345 63 -89 31 -221 94 -257 122 -35 27
-7 17 96 -35 216 -108 429 -155 598 -131 257 36 468 190 591 432 13 25 25 40
27 33 3 -7 -14 -44 -37 -83z m55 -80 c-86 -129 -244 -271 -351 -316 -49 -21
-42 -1 8 22 104 47 231 163 326 297 30 43 57 76 59 73 3 -3 -16 -37 -42 -76z
m-4685 4 c0 -10 -79 -123 -119 -172 -39 -47 -157 -152 -171 -152 -5 0 35 42
88 94 54 53 118 126 142 165 40 62 60 84 60 65z m4745 -71 c-21 -32 -61 -82
-89 -112 -61 -65 -166 -154 -173 -147 -3 3 10 18 28 33 80 66 160 149 210 218
62 87 80 92 24 8z m68 -54 c-23 -41 -172 -199 -186 -199 -6 0 18 30 54 68 36
37 83 88 104 115 43 54 54 60 28 16z m-4175 2 c11 -7 10 -9 -3 -15 -15 -5 -15
-8 2 -36 14 -24 15 -34 6 -49 -9 -14 -9 -21 0 -30 8 -8 7 -11 -4 -11 -9 0 -24
9 -34 20 -12 13 -22 17 -28 11 -13 -13 7 -37 45 -57 17 -9 26 -19 21 -26 -5
-9 -8 -9 -11 0 -2 8 -10 7 -28 -4 -26 -18 -34 -8 -8 11 14 10 13 13 -10 28
-29 19 -35 54 -11 63 8 4 22 0 31 -7 13 -10 17 -10 25 2 14 23 10 38 -13 50
-13 6 -31 19 -42 28 -19 17 -20 17 44 30 3 0 11 -3 18 -8z m4209 -103 c-78
-95 -95 -113 -101 -108 -3 3 25 40 61 83 37 42 69 75 71 72 3 -2 -11 -24 -31
-47z m-4875 0 c-21 -33 -108 -122 -101 -103 6 16 114 144 118 140 2 -2 -6 -19
-17 -37z m757 -42 c4 -31 4 -56 -1 -56 -4 0 -8 10 -8 23 0 12 -3 40 -7 62 -3
22 -3 37 1 33 4 -3 11 -31 15 -62z m2787 -13 c46 -20 84 -40 84 -44 0 -8 -113
36 -165 64 -55 30 -5 17 81 -20z m1414 19 c0 -4 -16 -23 -35 -42 -42 -40 -46
-31 -7 15 27 33 42 43 42 27z m-5351 -174 c-1 -24 -3 -35 -6 -25 -7 25 -41 21
-46 -5 -2 -13 -5 -2 -6 25 -1 46 0 47 29 47 29 0 30 -2 29 -42z m54 -26 c14
-3 17 4 17 32 0 20 5 36 10 36 16 0 12 -66 -5 -80 -8 -6 -23 -9 -35 -5 -16 5
-20 14 -19 48 l2 42 6 -35 c4 -22 12 -36 24 -38z m81 43 c20 -31 21 -41 1 -25
-10 9 -15 9 -16 1 -3 -26 -4 -30 -11 -37 -5 -4 -8 14 -8 39 0 53 10 59 34 22z
m36 -22 c0 -27 -4 -43 -9 -37 -8 8 -4 84 5 84 2 0 4 -21 4 -47z m188 11 c4
-38 -20 -63 -43 -44 -15 13 -21 61 -8 74 4 4 16 6 28 4 14 -2 21 -12 23 -34z
m52 -9 c0 -19 -4 -37 -10 -40 -6 -4 -10 7 -10 24 0 17 -5 31 -11 31 -8 0 -8 5
1 15 18 21 30 9 30 -30z m1514 2 c3 -20 1 -39 -4 -42 -6 -4 -10 -2 -10 3 0 5
-10 12 -21 15 l-21 6 22 31 c12 17 24 29 26 27 2 -2 6 -20 8 -40z m66 24 c0
-28 11 -52 21 -45 5 3 9 0 9 -6 0 -7 -6 -10 -14 -7 -7 3 -18 1 -23 -4 -18 -18
-43 2 -43 35 0 37 6 46 32 46 11 0 18 -7 18 -19z m100 -6 c0 -23 24 -45 49
-45 19 0 12 18 -9 25 -11 3 -20 13 -20 21 0 19 28 30 42 16 8 -8 5 -9 -11 -5
-11 3 -21 1 -21 -5 0 -5 9 -12 20 -15 24 -6 27 -45 5 -53 -8 -4 -22 -1 -29 6
-10 8 -20 8 -33 1 -26 -13 -41 -1 -41 34 0 38 5 45 29 45 14 0 19 -7 19 -25z
m136 14 c4 -8 0 -9 -15 -4 -11 3 -21 2 -21 -3 0 -5 9 -12 20 -15 24 -6 26 -29
5 -47 -12 -10 -18 -10 -30 0 -15 13 -21 61 -8 73 10 11 41 8 49 -4z m64 1 c0
-5 -6 -7 -14 -4 -8 3 -17 1 -21 -5 -3 -7 2 -11 13 -11 25 0 37 -29 19 -47 -24
-24 -47 -5 -47 38 0 35 3 39 25 39 14 0 25 -4 25 -10z m50 -6 c0 -17 -22 -14
-28 4 -2 7 3 12 12 12 9 0 16 -7 16 -16z m50 -11 l14 -28 4 28 c5 41 22 32 22
-12 0 -52 -12 -58 -35 -18 l-19 32 -7 -30 c-6 -27 -7 -26 -8 13 -1 48 10 54
29 15z m-2100 -23 c0 -5 -22 -10 -50 -10 -27 0 -50 5 -50 10 0 6 23 10 50 10
28 0 50 -4 50 -10z"/>
<path d="M8210 7431 c-7 -14 -7 -22 0 -26 13 -8 40 13 40 31 0 21 -28 17 -40
-5z"/>
<path d="M7275 7266 c-91 -18 -136 -38 -185 -82 -45 -41 -60 -82 -60 -166 0
-118 51 -221 180 -363 153 -169 236 -305 277 -455 28 -102 25 -354 -6 -480
-27 -109 -72 -230 -104 -274 -73 -106 -240 -257 -424 -383 -59 -41 -71 -53
-52 -53 47 1 106 39 249 162 198 169 258 251 320 436 46 137 63 264 57 411 -9
239 -83 410 -282 661 -91 114 -129 195 -129 274 1 107 53 189 151 236 38 19
70 25 149 28 126 5 225 -18 357 -83 114 -55 201 -121 336 -250 87 -83 99 -92
71 -52 -75 106 -279 280 -402 343 -164 84 -358 118 -503 90z"/>
<path d="M8152 6765 c2 -5 27 -43 57 -83 57 -77 84 -94 33 -20 -35 49 -95 118
-90 103z"/>
<path d="M1500 6490 c0 -5 7 -10 15 -10 8 0 15 5 15 10 0 6 -7 10 -15 10 -8 0
-15 -4 -15 -10z"/>
<path d="M1864 6485 c-8 -19 2 -45 16 -45 5 0 10 14 10 30 0 31 -16 41 -26 15z"/>
<path d="M5460 5375 c0 -8 5 -15 10 -15 6 0 10 7 10 15 0 8 -4 15 -10 15 -5 0
-10 -7 -10 -15z"/>
<path d="M5560 5375 c0 -9 5 -15 10 -13 12 4 11 16 -1 24 -5 3 -9 -2 -9 -11z"/>
<path d="M5690 5375 c0 -9 5 -15 10 -13 12 4 11 16 -1 24 -5 3 -9 -2 -9 -11z"/>
<path d="M5756 5382 c-3 -6 -1 -14 5 -17 15 -10 25 3 12 16 -7 7 -13 7 -17 1z"/>
<path d="M8210 3969 c0 -11 5 -17 10 -14 6 3 10 13 10 21 0 8 -4 14 -10 14 -5
0 -10 -9 -10 -21z"/>
<path d="M8384 3656 c-10 -8 -16 -17 -12 -21 11 -11 48 5 48 21 0 18 -11 18
-36 0z"/>
<path d="M3480 2464 c0 -9 7 -14 17 -12 25 5 28 28 4 28 -12 0 -21 -6 -21 -16z"/>
<path d="M3844 2465 c-7 -18 2 -45 15 -45 11 0 19 30 14 48 -6 17 -22 15 -29
-3z"/>
<path d="M5485 2430 c3 -5 10 -10 16 -10 5 0 9 5 9 10 0 6 -7 10 -16 10 -8 0
-12 -4 -9 -10z"/>
<path d="M5590 2464 c0 -8 5 -12 10 -9 6 3 10 10 10 16 0 5 -4 9 -10 9 -5 0
-10 -7 -10 -16z"/>
<path d="M5585 2430 c-3 -5 1 -10 9 -10 9 0 16 5 16 10 0 6 -4 10 -9 10 -6 0
-13 -4 -16 -10z"/>
<path d="M5715 2440 c-3 -6 1 -13 10 -16 19 -8 30 0 20 15 -8 14 -22 14 -30 1z"/>
<path d="M5786 2443 c-11 -11 -6 -23 9 -23 8 0 15 4 15 9 0 13 -16 22 -24 14z"/>
</g>
</svg>
